<?xml version="1.0" encoding="UTF-8" standalone="no"?>
<!-- Generator: Adobe Illustrator 22.1.0, SVG Export Plug-In . SVG Version: 6.00 Build 0)  -->

<svg
   xmlns:dc="http://purl.org/dc/elements/1.1/"
   xmlns:cc="http://creativecommons.org/ns#"
   xmlns:rdf="http://www.w3.org/1999/02/22-rdf-syntax-ns#"
   xmlns:svg="http://www.w3.org/2000/svg"
   xmlns="http://www.w3.org/2000/svg"
   xmlns:sodipodi="http://sodipodi.sourceforge.net/DTD/sodipodi-0.dtd"
   xmlns:inkscape="http://www.inkscape.org/namespaces/inkscape"
   version="1.1"
   id="lui-icon-list-ondark-solid-large"
   x="0px"
   y="0px"
   viewBox="0 0 48 48"
   enable-background="new 0 0 48 48"
   xml:space="preserve"
   sodipodi:docname="lui-icon-list-onlight-solid-large.svg"
   width="48"
   height="48"
   inkscape:version="0.92.2 5c3e80d, 2017-08-06"><metadata
     id="metadata18"><rdf:RDF><cc:Work
         rdf:about=""><dc:format>image/svg+xml</dc:format><dc:type
           rdf:resource="http://purl.org/dc/dcmitype/StillImage" /><dc:title /></cc:Work></rdf:RDF></metadata><defs
     id="defs16" /><sodipodi:namedview
     pagecolor="#ffffff"
     bordercolor="#666666"
     borderopacity="1"
     objecttolerance="10"
     gridtolerance="10"
     guidetolerance="10"
     inkscape:pageopacity="0"
     inkscape:pageshadow="2"
     inkscape:window-width="1696"
     inkscape:window-height="1285"
     id="namedview14"
     showgrid="false"
     inkscape:zoom="6.9532165"
     inkscape:cx="5.8473415"
     inkscape:cy="14.367988"
     inkscape:window-x="3315"
     inkscape:window-y="698"
     inkscape:window-maximized="0"
     inkscape:current-layer="lui-icon-list-ondark-solid-large" /><path
     id="ufo_list_icon"
     style="fill:#000000;fill-opacity:0.90355332;stroke:none;stroke-width:0.09999999;stroke-linecap:butt;stroke-linejoin:bevel;stroke-miterlimit:4;stroke-dasharray:none"
     d="M 17.254236,32.335243 H 31.03116 v 3.434322 H 17.254236 Z m 0,-9.979996 H 42.680445 V 25.78957 H 17.254236 Z m 0,-9.98 h 25.426209 v 3.434322 H 17.254236 Z m -5.880937,21.67706 A 2.9375992,2.9375992 0 0 1 8.4356995,36.989906 2.9375992,2.9375992 0 0 1 5.4981003,34.052307 2.9375992,2.9375992 0 0 1 8.4356995,31.114708 2.9375992,2.9375992 0 0 1 11.373299,34.052307 Z M 11.373,24.072008 a 2.9375,2.9375 0 0 1 -2.9374999,2.9375 2.9375,2.9375 0 0 1 -2.9375,-2.9375 2.9375,2.9375 0 0 1 2.9375,-2.9375 2.9375,2.9375 0 0 1 2.9374999,2.9375 z m 0,-9.9796 a 2.9375,2.9375 0 0 1 -2.9374999,2.9375 2.9375,2.9375 0 0 1 -2.9375,-2.9375 2.9375,2.9375 0 0 1 2.9375,-2.9375 2.9375,2.9375 0 0 1 2.9374999,2.9375 z"
     inkscape:connector-curvature="0" /></svg>