<?xml version="1.0" encoding="UTF-8" standalone="no"?>
<!-- Generator: Adobe Illustrator 22.1.0, SVG Export Plug-In . SVG Version: 6.00 Build 0)  -->

<svg
   xmlns:dc="http://purl.org/dc/elements/1.1/"
   xmlns:cc="http://creativecommons.org/ns#"
   xmlns:rdf="http://www.w3.org/1999/02/22-rdf-syntax-ns#"
   xmlns:svg="http://www.w3.org/2000/svg"
   xmlns="http://www.w3.org/2000/svg"
   xmlns:sodipodi="http://sodipodi.sourceforge.net/DTD/sodipodi-0.dtd"
   xmlns:inkscape="http://www.inkscape.org/namespaces/inkscape"
   version="1.1"
   id="lui-icon-overflow-ondark-solid-large"
   x="0px"
   y="0px"
   viewBox="0 0 48 48"
   enable-background="new 0 0 48 48"
   xml:space="preserve"
   sodipodi:docname="lui-icon-assignments-onlight-solid-large.svg"
   inkscape:version="0.92.2 5c3e80d, 2017-08-06"><metadata
     id="metadata18"><rdf:RDF><cc:Work
         rdf:about=""><dc:format>image/svg+xml</dc:format><dc:type
           rdf:resource="http://purl.org/dc/dcmitype/StillImage" /><dc:title></dc:title></cc:Work></rdf:RDF></metadata><defs
     id="defs16" /><sodipodi:namedview
     pagecolor="#ffffff"
     bordercolor="#666666"
     borderopacity="1"
     objecttolerance="10"
     gridtolerance="10"
     guidetolerance="10"
     inkscape:pageopacity="0"
     inkscape:pageshadow="2"
     inkscape:window-width="1776"
     inkscape:window-height="1142"
     id="namedview14"
     showgrid="false"
     inkscape:zoom="6.9532167"
     inkscape:cx="7.1947158"
     inkscape:cy="18.701433"
     inkscape:window-x="3205"
     inkscape:window-y="583"
     inkscape:window-maximized="0"
     inkscape:current-layer="lui-icon-overflow-ondark-solid-large" /><path
     id="assignments_icon"
     style="fill:#00ffff;fill-opacity:1;stroke:none;stroke-width:0.10000002;stroke-linecap:butt;stroke-linejoin:bevel;stroke-miterlimit:4;stroke-dasharray:none"
     d="M 32.902409,38.278595 C 31.638703,38.108872 30.461046,37.349425 29.74598,36.24308 29.580249,35.986662 29.406282,35.660606 29.359386,35.51851 l -0.08526,-0.258355 H 23.67967 18.085219 l -0.22109,0.470985 c -0.329962,0.702918 -1.255834,1.613829 -1.991996,1.959807 -0.730724,0.343422 -1.249454,0.460751 -2.007174,0.453992 -1.842126,-0.01644 -3.560541,-1.29747 -4.1182445,-3.070048 -0.2409878,-0.765947 -0.235033,-1.905317 0.013931,-2.665337 0.5527045,-1.68725 2.1062705,-2.910072 3.8238085,-3.009743 l 0.613595,-0.03561 3.135452,-5.968716 c 1.7245,-3.282795 3.135452,-5.995436 3.135452,-6.028093 0,-0.03266 -0.15737,-0.267495 -0.349711,-0.521864 -0.679491,-0.898615 -0.980267,-1.867565 -0.91299,-2.941188 0.110708,-1.766781 1.261745,-3.282787 2.963362,-3.90301 0.318057,-0.1159252 0.681219,-0.17245 1.258706,-0.1959047 0.717219,-0.029137 0.884245,-0.010374 1.435342,0.1614841 1.488484,0.4640856 2.598936,1.6453426 2.9922,3.1829836 0.08187,0.320132 0.148865,0.774675 0.148865,1.010095 0,0.82553 -0.403805,2.000202 -0.907532,2.640022 l -0.209619,0.266255 0.671193,1.275229 c 0.369157,0.701376 0.645949,1.300172 0.615094,1.330656 -0.141446,0.139741 -2.774384,1.481646 -2.816289,1.435344 -0.02602,-0.02875 -0.345268,-0.621752 -0.709441,-1.317783 l -0.662132,-1.26551 -0.23253,0.04975 c -0.127885,0.02736 -0.237108,0.05427 -0.242704,0.05979 -0.0056,0.0055 -1.439196,2.729973 -3.185774,6.05434 l -3.175601,6.044304 0.269924,0.353618 c 0.148458,0.19449 0.336516,0.484153 0.41791,0.643695 l 0.147981,0.290077 h 5.746198 5.746198 l 0.136021,-0.252577 c 0.07481,-0.138911 0.281156,-0.429504 0.458542,-0.645751 l 0.322521,-0.393175 -0.592121,-1.12173 c -0.325665,-0.616951 -0.592121,-1.138083 -0.592121,-1.158072 0,-0.03214 2.659873,-1.448651 2.809956,-1.496432 0.03266,-0.01037 0.359857,0.557576 0.727088,1.262171 l 0.667691,1.281082 0.478635,0.0431 c 1.817844,0.163691 3.363632,1.516482 3.833906,3.355233 0.187443,0.732899 0.188344,1.283766 0.0033,2.007346 -0.225157,0.880354 -0.551382,1.450222 -1.202271,2.100195 -0.431267,0.43066 -0.714141,0.639172 -1.138953,0.839542 -0.838176,0.395342 -1.688974,0.545121 -2.487378,0.437891 z m -1.71057,-13.12091 -1.973429,-3.756041 -2.958808,1.554562 1.973429,3.75604 z"
     inkscape:connector-curvature="0" /></svg>