<?xml version="1.0" encoding="UTF-8" standalone="no"?>
<!-- Generator: Adobe Illustrator 22.1.0, SVG Export Plug-In . SVG Version: 6.00 Build 0)  -->

<svg
   xmlns:dc="http://purl.org/dc/elements/1.1/"
   xmlns:cc="http://creativecommons.org/ns#"
   xmlns:rdf="http://www.w3.org/1999/02/22-rdf-syntax-ns#"
   xmlns:svg="http://www.w3.org/2000/svg"
   xmlns="http://www.w3.org/2000/svg"
   xmlns:sodipodi="http://sodipodi.sourceforge.net/DTD/sodipodi-0.dtd"
   xmlns:inkscape="http://www.inkscape.org/namespaces/inkscape"
   version="1.1"
   id="lui-icon-zoo-ondark-solid-small"
   x="0px"
   y="0px"
   viewBox="0 0 12 12"
   enable-background="new 0 0 12 12"
   xml:space="preserve"
   sodipodi:docname="lui-icon-link-onlight-solid-small.svg"
   inkscape:version="0.92.2 5c3e80d, 2017-08-06"><metadata
     id="metadata16"><rdf:RDF><cc:Work
         rdf:about=""><dc:format>image/svg+xml</dc:format><dc:type
           rdf:resource="http://purl.org/dc/dcmitype/StillImage" /><dc:title></dc:title></cc:Work></rdf:RDF></metadata><defs
     id="defs14" /><sodipodi:namedview
     pagecolor="#ffffff"
     bordercolor="#666666"
     borderopacity="1"
     objecttolerance="10"
     gridtolerance="10"
     guidetolerance="10"
     inkscape:pageopacity="0"
     inkscape:pageshadow="2"
     inkscape:window-width="1715"
     inkscape:window-height="1149"
     id="namedview12"
     showgrid="false"
     showguides="false"
     inkscape:zoom="13.906433"
     inkscape:cx="8.1101456"
     inkscape:cy="5.4817206"
     inkscape:window-x="3476"
     inkscape:window-y="860"
     inkscape:window-maximized="0"
     inkscape:current-layer="lui-icon-zoo-ondark-solid-small" /><path
     style="fill:#080000;fill-opacity:1;stroke:none;stroke-width:0.02;stroke-linecap:butt;stroke-linejoin:bevel;stroke-miterlimit:4;stroke-dasharray:none"
     d="M 2.8016325,5.2615971 C 1.7110763,6.3521534 1.6911648,8.0871729 2.7560573,9.1520654 l 0.1187718,0.1187718 c 1.0496497,1.0496498 2.7478837,1.0405878 3.8407501,-0.00414 L 5.9173221,8.4684371 C 5.2607524,9.0907686 4.2325928,9.0818048 3.5888413,8.4380533 c -0.6546182,-0.6546182 -0.6546181,-1.7070081 0,-2.3616262 L 5.1756883,4.4895801 4.3746689,3.6885607 Z M 6.7570112,7.6342718 7.5566493,8.4339099 9.1559259,6.8346332 C 10.246483,5.7440769 10.266395,4.0090576 9.2015015,2.9441648 L 9.0827297,2.825393 C 8.023834,1.7664973 6.3031873,1.7819714 5.2115961,2.8543956 l 0.8051626,0.8051627 c 0.6572912,-0.604428 1.6701952,-0.5947561 2.3077646,0.042813 0.6546183,0.6546183 0.6546182,1.7097703 1e-7,2.3643884 z M 4.3290937,6.8802087 5.146686,7.697801 7.5828898,5.2615971 6.7652975,4.4440049 Z"
     id="ufo_lock"
     inkscape:connector-curvature="0"
     sodipodi:nodetypes="sssccssccsccsssccsscccccc" /></svg>