<?xml version="1.0" encoding="UTF-8" standalone="no"?>
<svg
   xmlns:dc="http://purl.org/dc/elements/1.1/"
   xmlns:cc="http://creativecommons.org/ns#"
   xmlns:rdf="http://www.w3.org/1999/02/22-rdf-syntax-ns#"
   xmlns:svg="http://www.w3.org/2000/svg"
   xmlns="http://www.w3.org/2000/svg"
   xmlns:sodipodi="http://sodipodi.sourceforge.net/DTD/sodipodi-0.dtd"
   xmlns:inkscape="http://www.inkscape.org/namespaces/inkscape"
   sodipodi:docname="ellipsis.svg"
   inkscape:version="1.0beta2 (2b71d25, 2019-12-03)"
   id="svg8"
   version="1.1"
   viewBox="0 0 48 48"
   height="48"
   width="48">
  <defs
     id="defs2" />
  <sodipodi:namedview
     inkscape:document-rotation="0"
     inkscape:window-maximized="0"
     inkscape:window-y="121"
     inkscape:window-x="484"
     inkscape:window-height="1061"
     inkscape:window-width="1654"
     units="px"
     showgrid="false"
     inkscape:current-layer="layer1"
     inkscape:document-units="mm"
     inkscape:cy="20.152826"
     inkscape:cx="33.069666"
     inkscape:zoom="11.2"
     inkscape:pageshadow="2"
     inkscape:pageopacity="0.0"
     borderopacity="1.0"
     bordercolor="#666666"
     pagecolor="#ffffff"
     id="base" />
  <metadata
     id="metadata5">
    <rdf:RDF>
      <cc:Work
         rdf:about="">
        <dc:format>image/svg+xml</dc:format>
        <dc:type
           rdf:resource="http://purl.org/dc/dcmitype/StillImage" />
        <dc:title></dc:title>
      </cc:Work>
    </rdf:RDF>
  </metadata>
  <g
     inkscape:groupmode="layer"
     id="layer1"
     inkscape:label="Layer 1">
    <path
       inkscape:connector-curvature="0"
       d="m 27.197599,34.658646 a 3.1975995,3.1975995 0 0 1 -3.1976,3.197604 3.1975995,3.1975995 0 0 1 -3.197599,-3.197604 3.1975995,3.1975995 0 0 1 3.197599,-3.197595 3.1975995,3.1975995 0 0 1 3.1976,3.197595 m 0,-21.317301 a 3.1975995,3.1975995 0 0 1 -3.1976,3.197604 3.1975995,3.1975995 0 0 1 -3.197599,-3.197603 3.1975995,3.1975995 0 0 1 3.197599,-3.197596 3.1975995,3.1975995 0 0 1 3.1976,3.197595 z m 0,10.65845 a 3.1975995,3.1975995 0 0 1 -3.1976,3.197603 3.1975995,3.1975995 0 0 1 -3.197599,-3.197603 3.1975995,3.1975995 0 0 1 3.197599,-3.197595 3.1975995,3.1975995 0 0 1 3.1976,3.197595"
       style="fill:#000000;fill-opacity:1;stroke:none;stroke-width:0.661458"
       id="circle843" />
  </g>
</svg>
