<svg xmlns="http://www.w3.org/2000/svg" width="40" height="50" viewBox="0 0 40 50" xmlns:xlink="http://www.w3.org/1999/xlink"><defs><path id="b" d="M34.25 31.652A19.015 19.015 0 0 0 39 19.06C39 8.549 30.478 0 20 0S1 8.55 1 19.059c0 4.823 1.795 9.233 4.75 12.593L19.975 46 34.25 31.652z"/><path id="a" d="M34.25 31.652A19.015 19.015 0 0 0 39 19.06C39 8.549 30.478 0 20 0S1 8.55 1 19.059c0 4.823 1.795 9.233 4.75 12.593L19.975 46 34.25 31.652z"/><mask id="c" width="38" height="46" x="0" y="0" fill="#fff"><use xlink:href="#a"/></mask></defs><g fill="none" fill-rule="evenodd"><ellipse cx="20" cy="45.16" fill="#FFF" stroke="#979797" stroke-width=".25" rx="3.5" ry="3.5"/><use fill="#01B6B2" xlink:href="#b"/><path fill="#323232" fill-opacity=".5" d="M11.81 37.66h16.38l-8.2 8z"/><use stroke="#416A86" stroke-width=".5" mask="url(#c)" xlink:href="#a"/><ellipse cx="19.81" cy="19.19" fill="#FFF" rx="4.81" ry="4.81"/></g></svg>